<?xml version="1.0" encoding="utf-8"?>
<!-- Generator: Adobe Illustrator 22.0.1, SVG Export Plug-In . SVG Version: 6.00 Build 0)  -->
<svg version="1.1" id="Layer_1" xmlns="http://www.w3.org/2000/svg" xmlns:xlink="http://www.w3.org/1999/xlink" x="0px" y="0px"
	 viewBox="0 0 50 50" style="enable-background:new 0 0 50 50;" xml:space="preserve">
<style type="text/css">
	.st0{fill:#FFFFFF;}
</style>
<title>Icon</title>
<g id="Icons">
	<path class="st0" d="M15,25c0,2.761-2.239,5-5,5s-5-2.239-5-5s2.239-5,5-5S15,22.239,15,25"/>
	<path class="st0" d="M30,25c0,2.761-2.239,5-5,5s-5-2.239-5-5s2.239-5,5-5S30,22.239,30,25"/>
	<path class="st0" d="M45,25c0,2.761-2.239,5-5,5s-5-2.239-5-5s2.239-5,5-5S45,22.239,45,25"/>
</g>
</svg>
